<?xml version="1.0" encoding="utf-8"?>
<!-- Generator: Adobe Illustrator 24.0.2, SVG Export Plug-In . SVG Version: 6.00 Build 0)  -->
<svg version="1.1" id="Capa_1" xmlns="http://www.w3.org/2000/svg" xmlns:xlink="http://www.w3.org/1999/xlink" x="0px" y="0px"
	 viewBox="0 0 708.66 2576.69" style="enable-background:new 0 0 708.66 2576.69;" xml:space="preserve">
<style type="text/css">
	.st0{fill:none;stroke:#000000;stroke-miterlimit:10;}
</style>
<g>
	<path class="st0" d="M340.16,2420.79c0,0,0-552.76,0-570.47c0-35.43-22.82-35.43-22.82-53.15c0-17.72,22.82-17.72,22.82-35.43
		s-11.91-17.72-11.91-35.43s11.91-17.72,11.91-35.43c0-17.72-16.87-17.72-16.87-35.43s16.87-17.72,16.87-35.43
		s-32.69-17.72-32.69-35.43s32.69-17.72,32.69-35.43c0-17.72-21.78-17.72-21.78-35.43s21.78-17.72,21.78-35.43
		s-15.87-17.72-15.87-35.43c0-17.72,15.87-17.72,15.87-35.43s-36.57-17.72-36.57-35.43s36.57-17.72,36.57-35.43
		s-13.89-17.72-13.89-35.43c0-17.72,13.89-17.72,13.89-35.43s-12.82-17.72-12.82-35.43s12.82-17.72,12.82-35.43
		c0-20.23-89.25-13.47-89.25-35.43c0-21.96,89.25-15.2,89.25-35.43c0-17.72-34.72-17.72-34.72-35.43s34.72-17.72,34.72-35.43
		c0-17.72-29.76-17.72-29.76-35.43s29.76-17.72,29.76-53.15c0-11.15,0-570.47,0-570.47c0-7.83,6.35-14.17,14.17-14.17h0
		c7.83,0,14.17,6.35,14.17,14.17c0,0,0,552.76,0,570.47c0,35.43,29.76,35.43,29.76,53.15s-29.76,17.72-29.76,35.43
		c0,17.72,34.72,17.72,34.72,35.43s-34.72,17.72-34.72,35.43c0,20.23,89.29,13.77,89.29,35.43c0,21.96-89.29,15.2-89.29,35.43
		c0,17.72,12.9,17.72,12.9,35.43s-12.9,17.72-12.9,35.43s13.89,17.72,13.89,35.43c0,17.72-13.89,17.72-13.89,35.43
		c0,17.72,36.71,17.72,36.71,35.43s-36.71,17.72-36.71,35.43s15.87,17.72,15.87,35.43c0,17.72-15.87,17.72-15.87,35.43
		s21.83,17.72,21.83,35.43s-21.83,17.72-21.83,35.43c0,17.72,32.7,17.72,32.7,35.43s-32.7,17.72-32.7,35.43s16.87,17.72,16.87,35.43
		s-16.87,17.72-16.87,35.43c0,17.72,11.91,17.72,11.91,35.43s-11.91,17.72-11.91,35.43s22.82,17.72,22.82,35.43
		c0,17.72-22.82,17.72-22.82,53.15c0,14.29,0,570.47,0,570.47c0,7.83-6.35,14.17-14.17,14.17h0
		C346.5,2434.96,340.16,2428.61,340.16,2420.79z"/>
</g>
<rect class="st0" width="708.66" height="2576.69"/>
</svg>
