<?xml version="1.0" encoding="utf-8"?>
<!-- Generator: Adobe Illustrator 24.0.2, SVG Export Plug-In . SVG Version: 6.00 Build 0)  -->
<svg version="1.1" id="Capa_1" xmlns="http://www.w3.org/2000/svg" xmlns:xlink="http://www.w3.org/1999/xlink" x="0px" y="0px"
	 viewBox="0 0 708.66 2607.87" style="enable-background:new 0 0 708.66 2607.87;" xml:space="preserve">
<style type="text/css">
	.st0{fill:none;stroke:#000000;stroke-miterlimit:10;}
</style>
<rect class="st0" width="708.66" height="2607.87"/>
<g>
	<path class="st0" d="M368.5,2239.37v-846.85c0-35.43,65.9-35.43,65.9-53.15c0-17.72-65.9-17.72-65.9-35.43s81.91-17.72,81.91-35.43
		s-81.91-17.72-81.91-35.43c0-17.72,117.63-17.72,117.63-35.43s-117.63-17.72-117.63-35.43s24.49-17.72,24.49-35.43
		c0-17.72-24.49-17.72-24.49-35.43s24.52-17.72,24.52-35.43s-24.52-17.72-24.52-53.15V155.91c0-7.83-6.34-14.17-14.17-14.17h0
		c-7.83,0-14.17,6.35-14.17,14.17v846.85c0,35.43-24.49,35.43-24.49,53.15s24.49,17.72,24.49,35.43s-24.52,17.72-24.52,35.43
		c0,17.72,24.52,17.72,24.52,35.43s-117.63,17.72-117.63,35.43s117.63,17.72,117.63,35.43c0,17.72-81.91,17.72-81.91,35.43
		s81.91,17.72,81.91,35.43s-65.87,17.72-65.87,35.43s65.87,17.72,65.87,53.15v846.85c0,7.83,6.34,14.17,14.17,14.17h0
		C362.16,2253.54,368.5,2247.2,368.5,2239.37z"/>
</g>
</svg>
