<?xml version="1.0" encoding="utf-8"?>
<!-- Generator: Adobe Illustrator 24.0.2, SVG Export Plug-In . SVG Version: 6.00 Build 0)  -->
<svg version="1.1" id="Capa_1" xmlns="http://www.w3.org/2000/svg" xmlns:xlink="http://www.w3.org/1999/xlink" x="0px" y="0px"
	 viewBox="0 0 708.66 3231.5" style="enable-background:new 0 0 708.66 3231.5;" xml:space="preserve">
<style type="text/css">
	.st0{fill:none;stroke:#000000;stroke-miterlimit:10;}
</style>
<g>
	<path class="st0" d="M368.5,2862.99c0,0,0-715.75,0-733.46c0-35.43,24.52-35.43,24.52-53.15s-24.52-17.72-24.52-35.43
		c0-17.72,24.52-17.72,24.52-35.43s-24.52-17.72-24.52-35.43s24.52-17.72,24.52-35.43s-24.52-17.72-24.52-35.43
		c0-17.72,24.52-17.72,24.52-35.43s-24.52-17.72-24.52-35.43s24.52-17.72,24.52-35.43c0-17.72-24.52-17.72-24.52-35.43
		c0-17.72,55.56-17.72,55.56-35.43s-55.56-17.72-55.56-35.43s24.52-17.72,24.52-35.43c0-17.72-24.52-17.72-24.52-35.43
		s24.52-17.72,24.52-35.43s-24.52-17.72-24.52-35.43c0-17.72,34.87-17.72,34.87-35.43s-34.87-17.72-34.87-35.43
		s34.87-17.72,34.87-35.43s-34.87-17.72-34.87-35.43c0-17.72,34.87-17.72,34.87-35.43s-34.87-17.72-34.87-35.43
		s34.87-17.72,34.87-35.43c0-17.72-34.87-17.72-34.87-35.43s24.52-17.72,24.52-35.43s-24.52-17.72-24.52-35.43
		s24.52-17.72,24.52-35.43c0-17.72-24.52-17.72-24.52-35.43s34.87-17.72,34.87-35.43s-34.87-17.72-34.87-35.43
		c0-17.72,65.91-17.72,65.91-35.43c0-17.72-65.91-17.72-65.91-35.43s24.52-17.72,24.52-35.43c0-17.72-24.52-17.72-24.52-53.15
		c0-17.41,0-733.46,0-733.46c0-7.83-6.35-14.17-14.17-14.17h0c-7.83,0-14.17,6.35-14.17,14.17c0,0,0,715.75,0,733.46
		c0,35.43-24.52,35.43-24.52,53.15c0,17.72,24.52,17.72,24.52,35.43s-65.91,17.72-65.91,35.43c0,17.72,65.91,17.72,65.91,35.43
		c0,17.72-34.87,17.72-34.87,35.43s34.87,17.72,34.87,35.43s-24.52,17.72-24.52,35.43c0,17.72,24.52,17.72,24.52,35.43
		s-24.52,17.72-24.52,35.43s24.52,17.72,24.52,35.43s-34.87,17.72-34.87,35.43c0,17.72,34.87,17.72,34.87,35.43
		s-34.87,17.72-34.87,35.43s34.87,17.72,34.87,35.43c0,17.72-34.87,17.72-34.87,35.43s34.87,17.72,34.87,35.43
		s-34.87,17.72-34.87,35.43s34.87,17.72,34.87,35.43c0,17.72-24.52,17.72-24.52,35.43s24.52,17.72,24.52,35.43
		s-24.52,17.72-24.52,35.43c0,17.72,24.52,17.72,24.52,35.43s-55.56,17.72-55.56,35.43s55.56,17.72,55.56,35.43
		s-24.52,17.72-24.52,35.43c0,17.72,24.52,17.72,24.52,35.43s-24.52,17.72-24.52,35.43s24.52,17.72,24.52,35.43
		c0,17.72-24.52,17.72-24.52,35.43s24.52,17.72,24.52,35.43s-24.52,17.72-24.52,35.43s24.52,17.72,24.52,35.43
		c0,17.72-24.52,17.72-24.52,35.43s24.52,17.72,24.52,53.15c0,12.06,0,733.46,0,733.46c0,7.83,6.35,14.17,14.17,14.17h0
		C362.16,2877.17,368.5,2870.82,368.5,2862.99z"/>
</g>
<rect class="st0" width="708.66" height="3231.5"/>
</svg>
