<?xml version="1.0" encoding="utf-8"?>
<!-- Generator: Adobe Illustrator 24.0.2, SVG Export Plug-In . SVG Version: 6.00 Build 0)  -->
<svg version="1.1" id="Capa_1" xmlns="http://www.w3.org/2000/svg" xmlns:xlink="http://www.w3.org/1999/xlink" x="0px" y="0px"
	 viewBox="0 0 708.66 907.09" style="enable-background:new 0 0 708.66 907.09;" xml:space="preserve">
<style type="text/css">
	.st0{fill:none;stroke:#000000;stroke-miterlimit:10;}
</style>
<g>
	<rect class="st0" width="708.66" height="907.09"/>
	<path class="st0" d="M354.33,354.33L354.33,354.33c7.83,0,14.17,6.35,14.17,14.17c0,0,0,49.61,0,67.32
		c0,35.43,24.01,35.43,24.01,53.15s-24.01,17.72-24.01,35.43c0,17.72,16.94,17.72,16.94,35.43s-16.94,17.72-16.94,35.43
		s32.6,17.72,32.6,35.43c0,17.72-32.6,17.72-32.6,53.15c0,13.04,0,67.32,0,67.32c0,7.83-6.35,14.17-14.17,14.17h0
		c-7.83,0-14.17-6.35-14.17-14.17c0,0,0-49.61,0-67.32c0-35.43-32.6-35.43-32.6-53.15c0-17.72,32.6-17.72,32.6-35.43
		c0-17.72-16.94-17.72-16.94-35.43s16.94-17.72,16.94-35.43c0-17.72-23.83-17.72-23.83-35.43c0-17.72,23.83-17.72,23.83-53.15
		c0-11.98,0-67.32,0-67.32C340.16,360.68,346.5,354.33,354.33,354.33z"/>
</g>
</svg>
