<?xml version="1.0" encoding="utf-8"?>
<!-- Generator: Adobe Illustrator 24.0.2, SVG Export Plug-In . SVG Version: 6.00 Build 0)  -->
<svg version="1.1" id="Capa_1" xmlns="http://www.w3.org/2000/svg" xmlns:xlink="http://www.w3.org/1999/xlink" x="0px" y="0px"
	 viewBox="0 0 708.66 2551.18" style="enable-background:new 0 0 708.66 2551.18;" xml:space="preserve">
<style type="text/css">
	.st0{fill:none;stroke:#000000;stroke-width:2;stroke-miterlimit:10;}
</style>
<rect class="st0" width="708.66" height="2551.18"/>
<path class="st0" d="M354.33,354.33L354.33,354.33c7.83,0,14.17,6.35,14.17,14.17c0,0,0,552.76,0,570.47
	c0,35.43,42.52,35.43,42.52,53.15s-42.52,17.72-42.52,35.43s49.61,17.72,49.61,35.43c0,17.72-49.61,17.72-49.61,35.43
	s127.56,17.72,127.56,35.43s-127.56,17.72-127.56,35.43s18.43,17.72,18.43,35.43s-18.43,17.72-18.43,35.43s19.84,17.72,19.84,35.43
	s-19.84,17.72-19.84,35.43c0,17.72,52.44,17.72,52.44,35.43s-52.44,17.72-52.44,35.43s22.68,17.72,22.68,35.43
	s-22.68,17.72-22.68,35.43c0,17.72,31.18,17.72,31.18,35.43s-31.18,17.72-31.18,35.43s46.72,17.72,46.72,35.43
	c0,17.72-46.72,17.72-46.72,35.43s24.09,17.72,24.09,35.43s-24.09,17.72-24.09,35.43s17.01,17.72,17.01,35.43
	s-17.01,17.72-17.01,35.43s32.6,17.72,32.6,35.43s-32.6,17.72-32.6,53.15c0,14.29,0,570.47,0,570.47c0,7.83-6.35,14.17-14.17,14.17
	h0c-7.83,0-14.17-6.35-14.17-14.17c0,0,0-552.76,0-570.47c0-35.43-32.6-35.43-32.6-53.15s32.6-17.72,32.6-35.43
	s-17.01-17.72-17.01-35.43c0-17.72,17.01-17.72,17.01-35.43s-24.09-17.72-24.09-35.43s24.09-17.72,24.09-35.43
	s-46.71-17.72-46.71-35.43c0-17.72,46.71-17.72,46.71-35.43s-31.12-17.72-31.12-35.43s31.12-17.72,31.12-35.43
	c0-17.72-22.68-17.72-22.68-35.43s22.68-17.72,22.68-35.43s-52.24-17.72-52.24-35.43s52.24-17.72,52.24-35.43
	c0-17.72-19.84-17.72-19.84-35.43s19.84-17.72,19.84-35.43s-18.32-17.72-18.32-35.43c0-17.72,18.32-17.72,18.32-35.43
	c0-17.72-127.5-17.72-127.5-35.43s127.5-17.72,127.5-35.43s-49.61-17.72-49.61-35.43c0-17.72,49.61-17.72,49.61-35.43
	s-42.52-17.72-42.52-35.43s42.52-17.72,42.52-53.15c0-11.15,0-570.47,0-570.47C340.16,360.68,346.5,354.33,354.33,354.33z"/>
</svg>
