<?xml version="1.0" encoding="utf-8"?>
<!-- Generator: Adobe Illustrator 24.0.2, SVG Export Plug-In . SVG Version: 6.00 Build 0)  -->
<svg version="1.1" id="Capa_1" xmlns="http://www.w3.org/2000/svg" xmlns:xlink="http://www.w3.org/1999/xlink" x="0px" y="0px"
	 viewBox="0 0 708.66 2576.69" style="enable-background:new 0 0 708.66 2576.69;" xml:space="preserve">
<style type="text/css">
	.st0{fill:none;stroke:#1D1D1B;stroke-miterlimit:10;}
</style>
<g>
	<g>
		<path class="st0" d="M340.16,124.72v846.85c0,35.43-17.14,35.43-17.14,53.15c0,17.72,17.14,17.72,17.14,35.43
			S323,1077.87,323,1095.59c0,17.72,17.16,17.72,17.16,35.43c0,20.23-82.34,13.47-82.34,35.43c0,21.96,82.34,15.2,82.34,35.43
			c0,20.24-57.34,13.47-57.34,35.43c0,21.96,57.34,15.2,57.34,35.43c0,17.72-46.11,17.72-46.11,35.43s46.11,17.72,46.11,53.15
			v846.85c0,7.83,6.34,14.17,14.17,14.17l0,0c7.83,0,14.17-6.35,14.17-14.17c0,0,0-846.85,0-846.85c0-35.43,46.13-35.43,46.13-53.15
			s-46.13-17.72-46.13-35.43c0-20.23,57.34-13.47,57.34-35.43c0-21.96-57.34-15.2-57.34-35.43c0-20.23,82.34-13.47,82.34-35.43
			c0-21.96-82.34-15.2-82.34-35.43c0-17.72,17.14-17.72,17.14-35.43c0-17.72-17.14-17.72-17.14-35.43s17.16-17.72,17.16-35.43
			c0-17.72-17.16-17.72-17.16-53.15V124.72c0-7.83-6.34-14.17-14.17-14.17l0,0C346.5,110.55,340.16,116.9,340.16,124.72z"/>
	</g>
	<rect x="0" y="0" class="st0" width="708.66" height="2576.69"/>
</g>
</svg>
