<?xml version="1.0" encoding="UTF-8" standalone="no"?>
<!-- Generator: Adobe Illustrator 24.0.2, SVG Export Plug-In . SVG Version: 6.00 Build 0)  -->

<svg
   version="1.1"
   id="Capa_1"
   x="0px"
   y="0px"
   viewBox="0 0 708.66 2576.69"
   style="enable-background:new 0 0 708.66 2576.69;"
   xml:space="preserve"
   sodipodi:docname="carta-22-superior-ajustado.svg"
   inkscape:version="1.3.2 (091e20e, 2023-11-25, custom)"
   xmlns:inkscape="http://www.inkscape.org/namespaces/inkscape"
   xmlns:sodipodi="http://sodipodi.sourceforge.net/DTD/sodipodi-0.dtd"
   xmlns="http://www.w3.org/2000/svg"
   xmlns:svg="http://www.w3.org/2000/svg"><defs
   id="defs1" /><sodipodi:namedview
   id="namedview1"
   pagecolor="#ffffff"
   bordercolor="#000000"
   borderopacity="0.25"
   inkscape:showpageshadow="2"
   inkscape:pageopacity="0.0"
   inkscape:pagecheckerboard="0"
   inkscape:deskcolor="#d1d1d1"
   inkscape:zoom="0.2231071"
   inkscape:cx="383.22403"
   inkscape:cy="1145.1899"
   inkscape:window-width="1920"
   inkscape:window-height="1009"
   inkscape:window-x="-8"
   inkscape:window-y="-8"
   inkscape:window-maximized="1"
   inkscape:current-layer="Capa_1" />
<style
   type="text/css"
   id="style1">
	.st0{fill:none;stroke:#000000;stroke-miterlimit:10;}
</style>
<rect
   class="st0"
   width="708.66"
   height="2576.69"
   id="rect1"
   style="enable-background:new 0 0 708.66 2576.69;fill:#ffffff;fill-opacity:1"
   inkscape:export-filename="..\PNG\carta-22-superior-ajustado.png"
   inkscape:export-xdpi="320"
   inkscape:export-ydpi="320" /><g
   id="g1"
   style="fill:#000000;fill-opacity:1">
	<path
   class="st0"
   d="M340.16,2420.79c0,0,0-552.76,0-570.47c0-35.43-22.82-35.43-22.82-53.15c0-17.72,22.82-17.72,22.82-35.43   s-11.91-17.72-11.91-35.43s11.91-17.72,11.91-35.43c0-17.72-16.87-17.72-16.87-35.43s16.87-17.72,16.87-35.43   s-32.69-17.72-32.69-35.43s32.69-17.72,32.69-35.43c0-17.72-21.78-17.72-21.78-35.43s21.78-17.72,21.78-35.43   s-15.87-17.72-15.87-35.43c0-17.72,15.87-17.72,15.87-35.43s-36.57-17.72-36.57-35.43s36.57-17.72,36.57-35.43   s-13.89-17.72-13.89-35.43c0-17.72,13.89-17.72,13.89-35.43s-12.82-17.72-12.82-35.43s12.82-17.72,12.82-35.43   c0-20.23-89.25-13.47-89.25-35.43c0-21.96,89.25-15.2,89.25-35.43c0-17.72-34.72-17.72-34.72-35.43s34.72-17.72,34.72-35.43   c0-17.72-29.76-17.72-29.76-35.43s29.76-17.72,29.76-53.15c0-11.15,0-570.47,0-570.47c0-7.83,6.35-14.17,14.17-14.17h0   c7.83,0,14.17,6.35,14.17,14.17c0,0,0,552.76,0,570.47c0,35.43,29.76,35.43,29.76,53.15s-29.76,17.72-29.76,35.43   c0,17.72,34.72,17.72,34.72,35.43s-34.72,17.72-34.72,35.43c0,20.23,89.29,13.77,89.29,35.43c0,21.96-89.29,15.2-89.29,35.43   c0,17.72,12.9,17.72,12.9,35.43s-12.9,17.72-12.9,35.43s13.89,17.72,13.89,35.43c0,17.72-13.89,17.72-13.89,35.43   c0,17.72,36.71,17.72,36.71,35.43s-36.71,17.72-36.71,35.43s15.87,17.72,15.87,35.43c0,17.72-15.87,17.72-15.87,35.43   s21.83,17.72,21.83,35.43s-21.83,17.72-21.83,35.43c0,17.72,32.7,17.72,32.7,35.43s-32.7,17.72-32.7,35.43s16.87,17.72,16.87,35.43   s-16.87,17.72-16.87,35.43c0,17.72,11.91,17.72,11.91,35.43s-11.91,17.72-11.91,35.43s22.82,17.72,22.82,35.43   c0,17.72-22.82,17.72-22.82,53.15c0,14.29,0,570.47,0,570.47c0,7.83-6.35,14.17-14.17,14.17h0   C346.5,2434.96,340.16,2428.61,340.16,2420.79z"
   id="path1"
   style="fill:#000000;fill-opacity:1" />
</g>

</svg>
