<?xml version="1.0" encoding="UTF-8" standalone="no"?>
<!-- Generator: Adobe Illustrator 24.0.2, SVG Export Plug-In . SVG Version: 6.00 Build 0)  -->

<svg
   version="1.1"
   id="Capa_1"
   x="0px"
   y="0px"
   viewBox="0 0 708.66 2551.18"
   style="enable-background:new 0 0 708.66 2551.18;"
   xml:space="preserve"
   sodipodi:docname="carta-22-superior.svg"
   inkscape:version="1.3.2 (091e20e, 2023-11-25, custom)"
   inkscape:export-filename="..\PNG\carta-22-superior.png"
   inkscape:export-xdpi="320"
   inkscape:export-ydpi="320"
   xmlns:inkscape="http://www.inkscape.org/namespaces/inkscape"
   xmlns:sodipodi="http://sodipodi.sourceforge.net/DTD/sodipodi-0.dtd"
   xmlns="http://www.w3.org/2000/svg"
   xmlns:svg="http://www.w3.org/2000/svg"><defs
   id="defs1" /><sodipodi:namedview
   id="namedview1"
   pagecolor="#ffffff"
   bordercolor="#000000"
   borderopacity="0.25"
   inkscape:showpageshadow="2"
   inkscape:pageopacity="0.0"
   inkscape:pagecheckerboard="0"
   inkscape:deskcolor="#d1d1d1"
   inkscape:zoom="0.31867607"
   inkscape:cx="353.02305"
   inkscape:cy="1275.59"
   inkscape:window-width="1920"
   inkscape:window-height="1009"
   inkscape:window-x="-8"
   inkscape:window-y="-8"
   inkscape:window-maximized="1"
   inkscape:current-layer="Capa_1" />
<style
   type="text/css"
   id="style1">
	.st0{fill:none;stroke:#000000;stroke-width:2;stroke-miterlimit:10;}
</style>
<rect
   class="st0"
   width="708.66"
   height="2551.18"
   id="rect1" />
<path
   class="st0"
   d="M354.33,354.33L354.33,354.33c7.83,0,14.17,6.35,14.17,14.17c0,0,0,552.76,0,570.47  c0,35.43,42.52,35.43,42.52,53.15s-42.52,17.72-42.52,35.43s49.61,17.72,49.61,35.43c0,17.72-49.61,17.72-49.61,35.43  s127.56,17.72,127.56,35.43s-127.56,17.72-127.56,35.43s18.43,17.72,18.43,35.43s-18.43,17.72-18.43,35.43s19.84,17.72,19.84,35.43  s-19.84,17.72-19.84,35.43c0,17.72,52.44,17.72,52.44,35.43s-52.44,17.72-52.44,35.43s22.68,17.72,22.68,35.43  s-22.68,17.72-22.68,35.43c0,17.72,31.18,17.72,31.18,35.43s-31.18,17.72-31.18,35.43s46.72,17.72,46.72,35.43  c0,17.72-46.72,17.72-46.72,35.43s24.09,17.72,24.09,35.43s-24.09,17.72-24.09,35.43s17.01,17.72,17.01,35.43  s-17.01,17.72-17.01,35.43s32.6,17.72,32.6,35.43s-32.6,17.72-32.6,53.15c0,14.29,0,570.47,0,570.47c0,7.83-6.35,14.17-14.17,14.17  h0c-7.83,0-14.17-6.35-14.17-14.17c0,0,0-552.76,0-570.47c0-35.43-32.6-35.43-32.6-53.15s32.6-17.72,32.6-35.43  s-17.01-17.72-17.01-35.43c0-17.72,17.01-17.72,17.01-35.43s-24.09-17.72-24.09-35.43s24.09-17.72,24.09-35.43  s-46.71-17.72-46.71-35.43c0-17.72,46.71-17.72,46.71-35.43s-31.12-17.72-31.12-35.43s31.12-17.72,31.12-35.43  c0-17.72-22.68-17.72-22.68-35.43s22.68-17.72,22.68-35.43s-52.24-17.72-52.24-35.43s52.24-17.72,52.24-35.43  c0-17.72-19.84-17.72-19.84-35.43s19.84-17.72,19.84-35.43s-18.32-17.72-18.32-35.43c0-17.72,18.32-17.72,18.32-35.43  c0-17.72-127.5-17.72-127.5-35.43s127.5-17.72,127.5-35.43s-49.61-17.72-49.61-35.43c0-17.72,49.61-17.72,49.61-35.43  s-42.52-17.72-42.52-35.43s42.52-17.72,42.52-53.15c0-11.15,0-570.47,0-570.47C340.16,360.68,346.5,354.33,354.33,354.33z"
   id="path1"
   style="fill:#000000" />
<path
   style="fill:#ffffff;stroke-width:3.13798"
   d="M 1.5689913,1275.59 V 3.1379827 H 354.59204 707.6151 V 1275.59 2548.0419 H 354.59204 1.5689913 Z M 365.57498,2406.8327 c 6.18707,-6.187 6.27597,-10.4599 6.27597,-301.6141 v -295.3382 l 15.68991,-15.8556 c 20.46106,-20.6771 20.46106,-27.0612 0,-41.761 -8.62945,-6.1997 -15.68991,-13.6895 -15.68991,-16.6441 0,-2.9546 3.53023,-10.1569 7.84496,-16.0052 9.93284,-13.4632 9.93284,-24.1925 0,-37.6558 -10.52191,-14.2616 -9.89642,-20.6852 3.13798,-32.225 14.97489,-13.2577 14.85533,-24.7354 -0.42068,-40.3794 -7.39252,-7.5706 -10.72421,-13.4488 -9.47209,-16.7119 1.06236,-2.7684 10.92642,-9.0692 21.92019,-14.0018 31.51752,-14.1409 30.74476,-25.6757 -2.73717,-40.8571 -12.53232,-5.6825 -20.27319,-11.0894 -20.27319,-14.1608 0,-2.7326 6.34296,-9.4394 14.0955,-14.9038 22.24152,-15.6773 21.78749,-26.9837 -1.6785,-41.7972 -15.34348,-9.6859 -15.64024,-16.0301 -1.43406,-30.6577 14.45904,-14.888 14.37783,-24.5196 -0.3202,-37.9848 -16.19595,-14.8374 -13.76825,-20.1538 14.4656,-31.6779 21.49665,-8.7742 23.59182,-10.425 24.46117,-19.272 1.00666,-10.245 -1.52158,-12.1481 -30.76161,-23.1558 -22.01396,-8.2873 -23.76015,-13.8956 -9.41395,-30.2351 11.89791,-13.5509 11.89791,-23.1459 0,-36.6969 -11.60078,-13.2126 -11.8334,-20.6574 -1.04599,-33.4775 4.72857,-5.6196 8.36794,-13.7868 8.36794,-18.7786 0,-4.9919 -3.63937,-13.1591 -8.36794,-18.7787 -10.2216,-12.1476 -10.58592,-18.1943 -1.3075,-21.7006 3.88325,-1.4674 29.35131,-6.3521 56.59568,-10.8548 53.55727,-8.8514 61.86317,-11.6315 61.86317,-20.7066 0,-7.829 -10.49373,-11.0198 -62.75966,-19.0828 -48.53731,-7.4878 -63.52271,-11.5096 -62.03584,-16.6494 0.57685,-1.9941 11.13447,-8.4386 23.46141,-14.3212 33.39409,-15.9362 32.80349,-25.9994 -2.38766,-40.6831 -26.73317,-11.1547 -27.05057,-17.2628 -1.58217,-30.4488 10.25552,-5.3096 19.21895,-11.3716 19.91878,-13.47105 2.84741,-8.54225 -2.96044,-18.35303 -14.80591,-25.01054 -6.88932,-3.87202 -15.40652,-10.70199 -18.92715,-15.17773 -6.33876,-8.05843 -6.40111,-10.98448 -6.40111,-300.41766 0,-259.45748 -0.54855,-293.06317 -4.8849,-299.25416 -5.78443,-8.25845 -15.90339,-9.0126 -23.89436,-1.78087 -5.48158,4.96074 -5.73855,18.34942 -5.73855,298.97912 0,329.612 2.3897,299.50557 -25.17732,317.19529 -14.20881,9.11775 -15.84558,11.30025 -14.99841,19.99915 0.8248,8.46915 3.44858,11.01335 19.77884,19.17845 25.62364,12.8118 25.4685,19.2155 -0.72133,29.7743 -34.10517,13.7499 -37.55265,25.5594 -10.92648,37.429 46.37766,20.6746 44.63096,22.5545 -32.28395,34.7456 -46.95303,7.4421 -59.93776,11.0723 -62.38128,17.44 -3.30727,8.6186 13.09517,14.2943 67.06937,23.2079 29.66192,4.8985 55.53677,10.5124 57.49964,12.4752 2.66647,2.6665 2.58347,4.9355 -0.32836,8.974 -19.40751,26.9167 -19.86255,29.9438 -6.94467,46.1989 11.80255,14.8515 11.80255,20.596 0,34.0383 -12.16957,13.8604 -12.12121,24.8094 0.17146,38.81 5.27197,6.0044 9.14364,13.211 8.60372,16.0146 -0.5723,2.9717 -10.57089,9.0972 -23.97616,14.6887 -37.13166,15.488 -37.13114,25.5344 0.002,40.8916 13.50384,5.5848 23.40141,11.6211 23.97987,14.6248 0.54177,2.8131 -4.03651,10.1363 -10.17397,16.2737 -14.78674,14.7868 -14.83393,25.4031 -0.17604,39.6101 6.04062,5.8548 10.98294,13.1745 10.98294,16.2661 0,3.0916 -5.31609,8.9769 -11.8135,13.0786 -24.54139,15.4923 -25.14886,26.06 -2.41898,42.0815 7.82786,5.5176 14.23248,12.2678 14.23248,15.0004 0,3.0597 -7.61526,8.4214 -19.82242,13.9564 -34.82371,15.7898 -35.69946,26.4746 -3.35918,40.9847 11.08794,4.9748 20.99929,11.2326 22.02525,13.9062 1.17389,3.0591 -2.91898,10.0515 -11.04105,18.863 -7.09856,7.701 -12.90646,16.2624 -12.90646,19.0253 0,2.7629 5.64837,10.7857 12.55193,17.8284 14.62629,14.9211 15.4138,20.4754 4.70697,33.1998 -10.26415,12.1982 -10.26415,26.602 0,38.8003 11.35332,13.4926 9.93159,19.3058 -7.84495,32.077 -20.70993,14.8786 -20.85253,22.3355 -0.7845,41.0259 l 14.90542,13.8822 0.77364,297.4769 0.7736,297.477 6.63448,5.4914 c 8.60752,7.1246 13.91244,6.9322 21.62911,-0.7845 z"
   id="path2" /></svg>
