<?xml version="1.0" encoding="UTF-8" standalone="no"?>
<!-- Generator: Adobe Illustrator 24.0.2, SVG Export Plug-In . SVG Version: 6.00 Build 0)  -->

<svg
   version="1.1"
   id="Capa_1"
   x="0px"
   y="0px"
   viewBox="0 0 708.66 3231.5"
   style="enable-background:new 0 0 708.66 3231.5;"
   xml:space="preserve"
   sodipodi:docname="carta-13-inferior.svg"
   inkscape:version="1.3.2 (091e20e, 2023-11-25, custom)"
   inkscape:export-filename="..\PNG\carta-13-inferior.png"
   inkscape:export-xdpi="320"
   inkscape:export-ydpi="320"
   xmlns:inkscape="http://www.inkscape.org/namespaces/inkscape"
   xmlns:sodipodi="http://sodipodi.sourceforge.net/DTD/sodipodi-0.dtd"
   xmlns="http://www.w3.org/2000/svg"
   xmlns:svg="http://www.w3.org/2000/svg"><defs
   id="defs1" /><sodipodi:namedview
   id="namedview1"
   pagecolor="#ffffff"
   bordercolor="#000000"
   borderopacity="0.25"
   inkscape:showpageshadow="2"
   inkscape:pageopacity="0.0"
   inkscape:pagecheckerboard="0"
   inkscape:deskcolor="#d1d1d1"
   inkscape:zoom="0.25158595"
   inkscape:cx="713.47386"
   inkscape:cy="1611.7752"
   inkscape:window-width="1920"
   inkscape:window-height="1009"
   inkscape:window-x="-8"
   inkscape:window-y="-8"
   inkscape:window-maximized="1"
   inkscape:current-layer="Capa_1" />
<style
   type="text/css"
   id="style1">
	.st0{fill:none;stroke:#000000;stroke-miterlimit:10;}
</style>
<g
   id="g1"
   style="fill:#000000;fill-opacity:1">
	<path
   class="st0"
   d="M368.5,2862.99c0,0,0-715.75,0-733.46c0-35.43,24.52-35.43,24.52-53.15s-24.52-17.72-24.52-35.43   c0-17.72,24.52-17.72,24.52-35.43s-24.52-17.72-24.52-35.43s24.52-17.72,24.52-35.43s-24.52-17.72-24.52-35.43   c0-17.72,24.52-17.72,24.52-35.43s-24.52-17.72-24.52-35.43s24.52-17.72,24.52-35.43c0-17.72-24.52-17.72-24.52-35.43   c0-17.72,55.56-17.72,55.56-35.43s-55.56-17.72-55.56-35.43s24.52-17.72,24.52-35.43c0-17.72-24.52-17.72-24.52-35.43   s24.52-17.72,24.52-35.43s-24.52-17.72-24.52-35.43c0-17.72,34.87-17.72,34.87-35.43s-34.87-17.72-34.87-35.43   s34.87-17.72,34.87-35.43s-34.87-17.72-34.87-35.43c0-17.72,34.87-17.72,34.87-35.43s-34.87-17.72-34.87-35.43   s34.87-17.72,34.87-35.43c0-17.72-34.87-17.72-34.87-35.43s24.52-17.72,24.52-35.43s-24.52-17.72-24.52-35.43   s24.52-17.72,24.52-35.43c0-17.72-24.52-17.72-24.52-35.43s34.87-17.72,34.87-35.43s-34.87-17.72-34.87-35.43   c0-17.72,65.91-17.72,65.91-35.43c0-17.72-65.91-17.72-65.91-35.43s24.52-17.72,24.52-35.43c0-17.72-24.52-17.72-24.52-53.15   c0-17.41,0-733.46,0-733.46c0-7.83-6.35-14.17-14.17-14.17h0c-7.83,0-14.17,6.35-14.17,14.17c0,0,0,715.75,0,733.46   c0,35.43-24.52,35.43-24.52,53.15c0,17.72,24.52,17.72,24.52,35.43s-65.91,17.72-65.91,35.43c0,17.72,65.91,17.72,65.91,35.43   c0,17.72-34.87,17.72-34.87,35.43s34.87,17.72,34.87,35.43s-24.52,17.72-24.52,35.43c0,17.72,24.52,17.72,24.52,35.43   s-24.52,17.72-24.52,35.43s24.52,17.72,24.52,35.43s-34.87,17.72-34.87,35.43c0,17.72,34.87,17.72,34.87,35.43   s-34.87,17.72-34.87,35.43s34.87,17.72,34.87,35.43c0,17.72-34.87,17.72-34.87,35.43s34.87,17.72,34.87,35.43   s-34.87,17.72-34.87,35.43s34.87,17.72,34.87,35.43c0,17.72-24.52,17.72-24.52,35.43s24.52,17.72,24.52,35.43   s-24.52,17.72-24.52,35.43c0,17.72,24.52,17.72,24.52,35.43s-55.56,17.72-55.56,35.43s55.56,17.72,55.56,35.43   s-24.52,17.72-24.52,35.43c0,17.72,24.52,17.72,24.52,35.43s-24.52,17.72-24.52,35.43s24.52,17.72,24.52,35.43   c0,17.72-24.52,17.72-24.52,35.43s24.52,17.72,24.52,35.43s-24.52,17.72-24.52,35.43s24.52,17.72,24.52,35.43   c0,17.72-24.52,17.72-24.52,35.43s24.52,17.72,24.52,53.15c0,12.06,0,733.46,0,733.46c0,7.83,6.35,14.17,14.17,14.17h0   C362.16,2877.17,368.5,2870.82,368.5,2862.99z"
   id="path1"
   style="fill:#000000;fill-opacity:1" />
</g>
<rect
   class="st0"
   width="708.66"
   height="3231.5"
   id="rect1" />
<path
   style="fill:#ffffff;fill-opacity:1;stroke-width:3.97478"
   d="M 1.9873924,1615.75 V 3.9747847 H 353.75584 705.52429 V 1615.75 3227.5252 H 353.75584 1.9873924 Z M 366.87263,2872.9744 c 3.6424,-3.6424 4.76974,-93.4071 4.76974,-379.7893 0,-397.0677 -0.43032,-387.2467 17.62445,-402.2308 9.64743,-8.0066 7.39217,-21.46 -5.70009,-34.0032 -14.85206,-14.2292 -14.85206,-17.5691 0,-31.7983 15.09953,-14.4662 15.09953,-25.6677 0,-39.1215 -6.5584,-5.8435 -11.92436,-12.9592 -11.92436,-15.8125 0,-2.8533 5.36596,-10.3288 11.92436,-16.6121 6.55839,-6.2833 11.92435,-15.5077 11.92435,-20.4986 0,-5.4736 -4.73163,-12.5725 -11.92435,-17.8903 -15.05164,-11.1282 -15.05164,-19.1198 0,-32.5309 15.10414,-13.4578 15.10414,-24.3895 0,-37.6431 -15.00493,-13.1667 -15.00493,-20.119 0,-33.2856 15.14119,-13.2861 15.10052,-24.1885 -0.14076,-37.7686 -6.63582,-5.9125 -11.55462,-13.3765 -10.93066,-16.5866 0.62395,-3.2101 12.7607,-10.4807 26.97056,-16.1568 38.56797,-15.4058 35.51307,-24.227 -15.93071,-46.0005 -13.80426,-5.8427 -13.85995,-12.0977 -0.21593,-24.2545 15.34115,-13.6691 15.41126,-24.8142 0.2475,-39.3421 -6.5584,-6.2833 -11.92436,-13.4379 -11.92436,-15.8991 0,-2.4612 5.36596,-9.6158 11.92436,-15.8991 6.55839,-6.2834 11.92435,-15.2656 11.92435,-19.9606 0,-4.6949 -5.36596,-13.3174 -11.92435,-19.1609 -15.8009,-14.0787 -15.04468,-20.2253 3.79069,-30.8114 25.18732,-14.1561 24.66845,-27.2031 -1.7006,-42.7612 -18.09915,-10.6788 -17.71627,-18.4112 1.39446,-28.1607 25.60916,-13.0648 25.58853,-26.3695 -0.0633,-40.7867 -18.58079,-10.443 -18.44994,-17.3246 0.57315,-30.1443 24.85894,-16.7524 24.71871,-27.9925 -0.50983,-40.8632 -19.11073,-9.7495 -19.49361,-17.4819 -1.39446,-28.1606 26.36905,-15.5581 26.88792,-28.6052 1.7006,-42.7613 -18.83537,-10.586 -19.59159,-16.7327 -3.79069,-30.8113 6.55839,-5.8436 11.92435,-14.466 11.92435,-19.161 0,-4.6949 -5.36596,-13.6772 -11.92435,-19.9605 -14.85206,-14.2292 -14.85206,-17.5691 0,-31.7983 15.09953,-14.4663 15.09953,-25.6677 0,-39.1215 -15.8009,-14.0787 -15.04468,-20.2253 3.79069,-30.8113 25.33124,-14.237 25.24086,-24.3076 -0.37021,-41.2562 -8.72122,-5.7714 -15.17006,-12.6277 -14.33074,-15.2362 0.83932,-2.6085 14.81657,-9.2143 31.06055,-14.6797 26.20377,-8.8163 29.53452,-11.0576 29.53452,-19.8739 0,-8.8163 -3.33075,-11.0576 -29.53452,-19.87391 -16.24398,-5.46533 -30.31334,-12.34751 -31.26525,-15.29378 -0.95191,-2.94623 3.84252,-10.44717 10.65429,-16.66874 15.46946,-14.12917 15.56294,-22.56724 0.46067,-41.571 l -11.92436,-15.00485 v -378.5587 c 0,-330.17828 -0.75538,-379.18561 -5.91056,-383.46403 -8.42653,-6.99341 -24.49302,-1.78969 -27.34588,8.85695 -1.32444,4.94271 -2.48225,177.12014 -2.57292,382.61651 l -0.16486,373.62976 -11.81377,15.61352 c -6.49758,8.58744 -11.81378,17.64319 -11.81378,20.12397 0,2.48075 5.42228,9.70531 12.0495,16.0546 6.62723,6.34928 11.53331,14.28573 10.9024,17.63651 -0.69005,3.66491 -13.01348,10.05152 -30.92972,16.02928 -26.33838,8.78781 -29.78263,11.07221 -29.78263,19.75341 0,8.6714 3.47577,10.9895 29.79867,19.8739 35.29947,11.9141 38.72889,18.617 16.04715,31.3649 -21.77165,12.2364 -21.81438,24.4399 -0.1358,38.7862 19.00898,12.5795 19.88615,20.0955 3.97479,34.0575 -15.02332,13.1827 -15.02332,20.9955 0,35.0294 15.01409,14.0253 15.01409,21.7478 0,35.7731 -15.02332,14.0339 -15.02332,21.8467 0,35.0294 15.99996,14.0397 15.02178,22.5373 -3.97479,34.5293 -11.41437,7.2056 -15.89914,12.7538 -15.89914,19.6695 0,7.099 4.18193,11.9831 15.89914,18.5686 8.74453,4.9147 15.89914,11.884 15.89914,15.4875 0,3.6034 -6.70745,10.8798 -14.90544,16.1697 -10.12765,6.535 -15.30224,13.053 -16.14334,20.3345 -1.04428,9.0404 1.28703,12.0046 14.90544,18.9522 21.16392,10.797 21.1823,20.6326 0.0608,32.5035 -20.90349,11.7485 -20.50666,24.8388 1.17714,38.8307 8.19799,5.2899 14.90544,12.5662 14.90544,16.1697 0,3.6034 -7.15461,10.5728 -15.89914,15.4875 -21.68543,12.1879 -21.68543,24.5486 0,38.238 18.99657,11.992 19.97475,20.4896 3.97479,34.5293 -15.02332,13.1828 -15.02332,20.9956 0,35.0295 15.01409,14.0252 15.01409,21.7478 0,35.773 -15.02332,14.0339 -15.02332,21.8467 0,35.0295 18.16786,15.942 15.63464,22.4837 -12.91805,33.359 -20.92612,7.9704 -25.03613,11.111 -26.07124,19.9223 -1.11847,9.5208 0.96864,11.2616 23.23767,19.3813 13.45658,4.9065 25.37816,11.2966 26.49239,14.2003 1.11424,2.9036 -3.5296,11.6067 -10.31962,19.3401 -15.30856,17.4355 -15.35467,21.3382 -0.42115,35.6455 14.98928,14.3606 14.98928,21.4124 0,35.773 -6.5584,6.2834 -11.92436,13.7104 -11.92436,16.5045 0,2.7941 5.36596,11.1917 11.92436,18.6613 14.91371,16.9858 14.91371,22.05 0,35.1366 -15.00581,13.1673 -15.00581,20.6351 0,35.6409 6.55839,6.5584 11.92435,14.9658 11.92435,18.6831 0,3.7172 -5.36596,11.4672 -11.92435,17.2221 -15.02332,13.1827 -15.02332,20.9955 0,35.0294 15.01409,14.0253 15.01409,21.7478 0,35.7731 -14.89963,13.9183 -14.89963,19.0117 0,37.7605 l 11.92435,15.0048 v 375.3319 c 0,251.1246 1.36164,377.8762 4.11463,383.0202 4.59935,8.594 19.58654,10.2207 26.88869,2.9185 z"
   id="path2" /></svg>
