<?xml version="1.0" encoding="UTF-8" standalone="no"?>
<!-- Generator: Adobe Illustrator 24.0.2, SVG Export Plug-In . SVG Version: 6.00 Build 0)  -->

<svg
   version="1.1"
   id="Capa_1"
   x="0px"
   y="0px"
   viewBox="0 0 708.66 907.09"
   style="enable-background:new 0 0 708.66 907.09;"
   xml:space="preserve"
   sodipodi:docname="carta-13-superior.svg"
   inkscape:version="1.3.2 (091e20e, 2023-11-25, custom)"
   inkscape:export-filename="..\PNG\carta-13-superior.png"
   inkscape:export-xdpi="320"
   inkscape:export-ydpi="320"
   xmlns:inkscape="http://www.inkscape.org/namespaces/inkscape"
   xmlns:sodipodi="http://sodipodi.sourceforge.net/DTD/sodipodi-0.dtd"
   xmlns="http://www.w3.org/2000/svg"
   xmlns:svg="http://www.w3.org/2000/svg"><defs
   id="defs1">
	
	
</defs><sodipodi:namedview
   id="namedview1"
   pagecolor="#ffffff"
   bordercolor="#000000"
   borderopacity="0.25"
   inkscape:showpageshadow="2"
   inkscape:pageopacity="0.0"
   inkscape:pagecheckerboard="0"
   inkscape:deskcolor="#d1d1d1"
   inkscape:zoom="0.89627267"
   inkscape:cx="354.24488"
   inkscape:cy="452.42928"
   inkscape:window-width="1920"
   inkscape:window-height="1009"
   inkscape:window-x="-8"
   inkscape:window-y="-8"
   inkscape:window-maximized="1"
   inkscape:current-layer="Capa_1" />
<style
   type="text/css"
   id="style1">
	.st0{fill:none;stroke:#000000;stroke-miterlimit:10;}
</style>
<rect
   class="st0"
   width="708.65997"
   height="907.09003"
   id="rect1"
   x="0"
   y="0" /><path
   class="st0"
   d="m 354.33,354.33 v 0 c 7.83,0 14.17,6.35 14.17,14.17 0,0 0,49.61 0,67.32 0,35.43 24.01,35.43 24.01,53.15 0,17.72 -24.01,17.72 -24.01,35.43 0,17.72 16.94,17.72 16.94,35.43 0,17.71 -16.94,17.72 -16.94,35.43 0,17.71 32.6,17.72 32.6,35.43 0,17.72 -32.6,17.72 -32.6,53.15 0,13.04 0,67.32 0,67.32 0,7.83 -6.35,14.17 -14.17,14.17 v 0 c -7.83,0 -14.17,-6.35 -14.17,-14.17 0,0 0,-49.61 0,-67.32 0,-35.43 -32.6,-35.43 -32.6,-53.15 0,-17.72 32.6,-17.72 32.6,-35.43 0,-17.72 -16.94,-17.72 -16.94,-35.43 0,-17.71 16.94,-17.72 16.94,-35.43 0,-17.72 -23.83,-17.72 -23.83,-35.43 0,-17.72 23.83,-17.72 23.83,-53.15 0,-11.98 0,-67.32 0,-67.32 0,-7.82 6.34,-14.17 14.17,-14.17 z"
   id="path1"
   style="fill:#000000;fill-opacity:1" />
<path
   style="fill:#ffffff;fill-opacity:1;stroke-width:1.11573"
   d="M 0.55786595,453.54501 V 1.1157319 H 354.24488 707.93188 V 453.54501 905.97429 H 354.24488 0.55786595 Z M 362.63983,763.80341 c 6.66216,-4.36521 6.61774,-4.05985 7.22529,-49.68271 0.53098,-39.87275 0.67345,-42.14225 2.95534,-47.0785 2.4985,-5.40482 9.07852,-12.5673 19.21344,-20.91417 9.93124,-8.17913 12.16408,-14.02617 8.39188,-21.97548 -1.72973,-3.64513 -4.25831,-5.56739 -21.15006,-16.07867 -6.97062,-4.33762 -9.4106,-7.95372 -9.4106,-13.94665 0,-5.15506 1.99674,-8.92636 8.90724,-16.82336 7.70632,-8.80646 9.73223,-17.18535 6.19951,-25.64035 -0.89606,-2.14459 -4.38829,-7.15151 -7.7605,-11.12648 -6.48389,-7.64284 -8.11083,-12.11496 -6.96843,-19.15472 0.7455,-4.59403 3.03374,-7.30739 12.60102,-14.94214 7.73308,-6.17104 10.45153,-10.84732 10.45153,-17.97873 0,-5.34917 -3.84829,-12.52934 -9.44504,-17.62259 -4.18996,-3.81303 -9.23188,-11.27955 -11.48137,-17.00266 -1.59084,-4.04739 -1.95731,-11.13972 -2.46522,-47.70979 -0.55251,-39.78091 -0.75315,-43.18666 -2.71482,-46.08097 -2.80768,-4.14255 -7.33656,-6.35843 -12.99554,-6.35843 -5.61037,0 -10.09139,2.47343 -12.90725,7.12455 -1.9363,3.19829 -2.14816,6.89426 -2.66162,46.43058 l -0.55787,42.95568 -2.9178,6.13652 c -1.60479,3.37509 -6.24805,9.8916 -10.31834,14.48114 -8.17321,9.21587 -10.19597,13.66196 -9.28967,20.41898 0.75611,5.63717 3.00823,8.69402 12.03438,16.33449 9.427,7.97979 11.03294,10.5259 11.04195,17.50614 0.008,6.23504 -2.21389,10.41904 -10.10173,19.02201 -4.86752,5.30884 -7.15732,12.23531 -6.14262,18.58095 0.93492,5.84662 3.05812,9.6972 9.09497,16.49436 5.91771,6.66303 7.15673,9.43742 7.15673,16.02519 0,6.15205 -3.11573,9.6251 -14.50452,16.16795 -15.20551,8.73555 -19.68521,15.10747 -16.78954,23.88144 1.24828,3.78235 3.49646,6.11327 17.63273,18.28164 4.60089,3.96041 7.80973,7.91938 9.94759,12.27305 l 3.15587,6.42678 0.55787,42.03933 c 0.53477,40.29886 0.65353,42.16966 2.86863,45.18714 4.97892,6.78245 14.45721,8.73152 21.14657,4.34848 z"
   id="path2" /></svg>
