<?xml version="1.0" encoding="UTF-8" standalone="no"?>
<!-- Generator: Adobe Illustrator 24.0.2, SVG Export Plug-In . SVG Version: 6.00 Build 0)  -->

<svg
   version="1.1"
   id="Capa_1"
   x="0px"
   y="0px"
   viewBox="0 0 708.66 2576.69"
   style="enable-background:new 0 0 708.66 2576.69;"
   xml:space="preserve"
   sodipodi:docname="carta-22-inferior-ajustado.svg"
   inkscape:version="1.3.2 (091e20e, 2023-11-25, custom)"
   xmlns:inkscape="http://www.inkscape.org/namespaces/inkscape"
   xmlns:sodipodi="http://sodipodi.sourceforge.net/DTD/sodipodi-0.dtd"
   xmlns="http://www.w3.org/2000/svg"
   xmlns:svg="http://www.w3.org/2000/svg"><defs
   id="defs2">
	
	
</defs><sodipodi:namedview
   id="namedview2"
   pagecolor="#ffffff"
   bordercolor="#000000"
   borderopacity="0.25"
   inkscape:showpageshadow="2"
   inkscape:pageopacity="0.0"
   inkscape:pagecheckerboard="0"
   inkscape:deskcolor="#d1d1d1"
   inkscape:zoom="0.2231071"
   inkscape:cx="356.33111"
   inkscape:cy="1364.8154"
   inkscape:window-width="1920"
   inkscape:window-height="1009"
   inkscape:window-x="-8"
   inkscape:window-y="-8"
   inkscape:window-maximized="1"
   inkscape:current-layer="Capa_1" />
<style
   type="text/css"
   id="style1">
	.st0{fill:none;stroke:#1D1D1B;stroke-miterlimit:10;}
</style>
<rect
   x="0"
   y="0"
   class="st0"
   width="708.65997"
   height="2576.6899"
   id="rect1"
   style="fill:#ffffff;fill-opacity:1" /><g
   id="g1"
   style="enable-background:new 0 0 708.66 2576.69;fill:#000000;fill-opacity:1">
		<path
   class="st0"
   d="m 340.16,124.72 v 846.85 c 0,35.43 -17.14,35.43 -17.14,53.15 0,17.72 17.14,17.72 17.14,35.43 0,17.71 -17.16,17.72 -17.16,35.44 0,17.72 17.16,17.72 17.16,35.43 0,20.23 -82.34,13.47 -82.34,35.43 0,21.96 82.34,15.2 82.34,35.43 0,20.24 -57.34,13.47 -57.34,35.43 0,21.96 57.34,15.2 57.34,35.43 0,17.72 -46.11,17.72 -46.11,35.43 0,17.71 46.11,17.72 46.11,53.15 v 846.85 c 0,7.83 6.34,14.17 14.17,14.17 v 0 c 7.83,0 14.17,-6.35 14.17,-14.17 0,0 0,-846.85 0,-846.85 0,-35.43 46.13,-35.43 46.13,-53.15 0,-17.72 -46.13,-17.72 -46.13,-35.43 0,-20.23 57.34,-13.47 57.34,-35.43 0,-21.96 -57.34,-15.2 -57.34,-35.43 0,-20.23 82.34,-13.47 82.34,-35.43 0,-21.96 -82.34,-15.2 -82.34,-35.43 0,-17.72 17.14,-17.72 17.14,-35.43 0,-17.72 -17.14,-17.72 -17.14,-35.43 0,-17.71 17.16,-17.72 17.16,-35.43 0,-17.72 -17.16,-17.72 -17.16,-53.15 V 124.72 c 0,-7.83 -6.34,-14.17 -14.17,-14.17 v 0 c -7.83,0 -14.17,6.35 -14.17,14.17 z"
   id="path1"
   style="fill:#000000;fill-opacity:1" />
	</g>
</svg>
