<?xml version="1.0" encoding="UTF-8" standalone="no"?>
<!-- Generator: Adobe Illustrator 24.0.2, SVG Export Plug-In . SVG Version: 6.00 Build 0)  -->

<svg
   version="1.1"
   id="Capa_1"
   x="0px"
   y="0px"
   viewBox="0 0 708.66 2607.87"
   style="enable-background:new 0 0 708.66 2607.87;"
   xml:space="preserve"
   sodipodi:docname="carta-22-inferior.svg"
   inkscape:version="1.3.2 (091e20e, 2023-11-25, custom)"
   inkscape:export-filename="..\PNG\carta-22-inferior.png"
   inkscape:export-xdpi="320"
   inkscape:export-ydpi="320"
   xmlns:inkscape="http://www.inkscape.org/namespaces/inkscape"
   xmlns:sodipodi="http://sodipodi.sourceforge.net/DTD/sodipodi-0.dtd"
   xmlns="http://www.w3.org/2000/svg"
   xmlns:svg="http://www.w3.org/2000/svg"><defs
   id="defs1" /><sodipodi:namedview
   id="namedview1"
   pagecolor="#ffffff"
   bordercolor="#000000"
   borderopacity="0.25"
   inkscape:showpageshadow="2"
   inkscape:pageopacity="0.0"
   inkscape:pagecheckerboard="0"
   inkscape:deskcolor="#d1d1d1"
   inkscape:zoom="0.31174865"
   inkscape:cx="354.45221"
   inkscape:cy="1303.9351"
   inkscape:window-width="1920"
   inkscape:window-height="1009"
   inkscape:window-x="-8"
   inkscape:window-y="-8"
   inkscape:window-maximized="1"
   inkscape:current-layer="Capa_1" />
<style
   type="text/css"
   id="style1">
	.st0{fill:none;stroke:#000000;stroke-miterlimit:10;}
</style>
<rect
   class="st0"
   width="708.66"
   height="2607.87"
   id="rect1" />
<g
   id="g1"
   style="fill:#000000;fill-opacity:1">
	<path
   class="st0"
   d="M368.5,2239.37v-846.85c0-35.43,65.9-35.43,65.9-53.15c0-17.72-65.9-17.72-65.9-35.43s81.91-17.72,81.91-35.43   s-81.91-17.72-81.91-35.43c0-17.72,117.63-17.72,117.63-35.43s-117.63-17.72-117.63-35.43s24.49-17.72,24.49-35.43   c0-17.72-24.49-17.72-24.49-35.43s24.52-17.72,24.52-35.43s-24.52-17.72-24.52-53.15V155.91c0-7.83-6.34-14.17-14.17-14.17h0   c-7.83,0-14.17,6.35-14.17,14.17v846.85c0,35.43-24.49,35.43-24.49,53.15s24.49,17.72,24.49,35.43s-24.52,17.72-24.52,35.43   c0,17.72,24.52,17.72,24.52,35.43s-117.63,17.72-117.63,35.43s117.63,17.72,117.63,35.43c0,17.72-81.91,17.72-81.91,35.43   s81.91,17.72,81.91,35.43s-65.87,17.72-65.87,35.43s65.87,17.72,65.87,53.15v846.85c0,7.83,6.34,14.17,14.17,14.17h0   C362.16,2253.54,368.5,2247.2,368.5,2239.37z"
   id="path1"
   style="fill:#000000;fill-opacity:1" />
</g>
<path
   style="fill:#ffffff;fill-opacity:1;stroke-width:3.20771"
   d="M 1.6038562,1303.9351 V 3.2077123 H 354.45221 707.30057 V 1303.9351 2604.6624 H 354.45221 1.6038562 Z M 366.64152,2251.1725 c 2.95558,-2.9556 3.84925,-103.7 3.84925,-433.9313 0,-394.5581 0.43737,-430.7064 5.2951,-437.6418 2.91228,-4.1579 17.20004,-13.0599 31.75055,-19.7823 39.4095,-18.2072 38.75904,-26.904 -2.96409,-39.6303 -43.66049,-13.3173 -43.421,-19.3932 1.20328,-30.5294 33.42426,-8.3411 43.98845,-12.3804 45.98454,-17.5821 3.72002,-9.6942 -6.46395,-15.1691 -45.08013,-24.2351 -31.76071,-7.4565 -41.00813,-13.274 -30.25139,-19.0308 3.49365,-1.8697 26.90976,-7.0055 52.03583,-11.4129 81.92565,-14.3705 81.65697,-26.0183 -0.91875,-39.8297 -43.54242,-7.2828 -57.05494,-11.1128 -57.05494,-16.1716 0,-1.7397 5.77389,-8.8796 12.83085,-15.8664 7.05697,-6.9868 12.83085,-15.0139 12.83085,-17.838 0,-2.8242 -5.77388,-11.3988 -12.83085,-19.0546 -7.05696,-7.656 -12.83085,-15.62 -12.83085,-17.6978 0,-2.0779 5.91098,-9.5719 13.13552,-16.6534 11.04098,-10.8224 12.79473,-14.2547 10.99822,-21.525 -1.17553,-4.7573 -5.46668,-12.2583 -9.53589,-16.6689 -4.0692,-4.4106 -9.01838,-11.1722 -10.99818,-15.0258 -2.60864,-5.0775 -3.59967,-126.10837 -3.59967,-439.61695 0,-332.19788 -0.89344,-433.50394 -3.84925,-436.45975 -4.96208,-4.96207 -19.41654,-4.96207 -24.37862,0 -2.95561,2.95563 -3.84925,103.81219 -3.84925,434.43619 0,289.12629 -1.0912,433.45701 -3.32146,439.32311 -1.82682,4.8048 -7.6007,13.6099 -12.83085,19.5667 -12.64183,14.3982 -12.00039,21.4751 3.32146,36.6445 7.05697,6.9868 12.83085,14.5759 12.83085,16.8647 0,2.2888 -5.77388,9.3447 -12.83085,15.6799 -7.42473,6.6653 -12.83085,14.4264 -12.83085,18.4202 0,3.7962 5.77324,12.6175 12.83085,19.6049 7.05697,6.9868 12.83085,14.1267 12.83085,15.8664 0,5.0588 -13.51252,8.8888 -57.05495,16.1716 -22.42915,3.7514 -45.47156,8.7455 -51.20534,11.0978 -23.6474,9.7017 -5.68273,20.2502 48.91761,28.7236 73.17738,11.3563 75.86532,17.2978 14.66666,32.4191 -29.88287,7.3837 -39.97447,13.457 -36.66984,22.0687 2.07304,5.4023 12.34332,9.367 46.06102,17.7814 44.59853,11.1298 44.86387,17.0301 1.3626,30.2988 -41.90743,12.7825 -42.60011,21.6226 -3.12341,39.8609 14.55051,6.7224 28.83827,15.6244 31.75055,19.7823 4.85773,6.9354 5.2951,43.0837 5.2951,437.6418 0,330.2313 0.89367,430.9757 3.84925,433.9313 2.11709,2.1171 7.60228,3.8493 12.18931,3.8493 4.58703,0 10.07222,-1.7322 12.18931,-3.8493 z"
   id="path2" /></svg>
